<svg xmlns="http://www.w3.org/2000/svg" width="160.101" height="41.89" viewBox="0 0 160.101 41.89"><defs><style>.a-logo-cariolagroup{fill:#0d0d58;}.b-logo-cariolagroup{fill:#2c2829;}.c-logo-cariolagroup{fill:#4c4444;}.d-logo-cariolagroup{fill:none;}.e-logo-cariolagroup{fill:#d50501;}</style></defs><g transform="translate(-13.669 -19.293)"><g transform="translate(13.669 19.293)"><path class="a-logo-cariolagroup" d="M34.266,27.762h-.623a10.085,10.085,0,0,0-2.792-5.3,6.921,6.921,0,0,0-4.9-1.886,5.809,5.809,0,0,0-5.008,2.66,12.271,12.271,0,0,0-1.858,7.149q0,5,2.169,7.734a7.211,7.211,0,0,0,5.979,2.735A8.392,8.392,0,0,0,31,40a12.6,12.6,0,0,0,3.489-2.735v1.188a10.724,10.724,0,0,1-9.148,4.6,11.46,11.46,0,0,1-8.431-3.216A11.238,11.238,0,0,1,13.669,31.5a11.955,11.955,0,0,1,12.2-12.2,14.674,14.674,0,0,1,4.81.943,5.8,5.8,0,0,0,1.566.415q.83,0,1.4-1.169h.623Z" transform="translate(-13.669 -19.293)"/><path class="a-logo-cariolagroup" d="M130.169,42.475v-.66a5.594,5.594,0,0,0,1.964-.651,1.235,1.235,0,0,0,.573-1.085,5.64,5.64,0,0,0-.435-1.735l-1.306-3.471H122.9l-1.116,3a5.643,5.643,0,0,0-.428,1.848q0,1.491,2.268,2.1v.66h-7.3v-.66a3.834,3.834,0,0,0,2.3-1.377,12.863,12.863,0,0,0,1.944-3.753l6.5-17.391h3.086l6.872,18.088a10.749,10.749,0,0,0,1.851,3.367,3.512,3.512,0,0,0,2.364,1.066v.66Zm-6.545-9.224h6.732l-3.441-9.167Z" transform="translate(-93.822 -19.293)"/><path class="a-logo-cariolagroup" d="M236.618,44.558V43.9q2.867-.227,2.867-2.886v-15.3a3.077,3.077,0,0,0-.594-2.169,4.429,4.429,0,0,0-2.273-.924v-.66h10.751a11.847,11.847,0,0,1,6.5,1.49,4.733,4.733,0,0,1,2.273,4.187,5,5,0,0,1-1.182,3.338,6.773,6.773,0,0,1-3.388,2.037v.076a3.527,3.527,0,0,1,1.716,1.313,30.963,30.963,0,0,1,2.682,4.4,24.12,24.12,0,0,0,2.5,4.035A3.53,3.53,0,0,0,260.61,43.9v.66h-6.517a30.807,30.807,0,0,1-3.287-5.492,29.9,29.9,0,0,0-2.051-3.638,4.13,4.13,0,0,0-1.4-1.273,7.431,7.431,0,0,0-2.9-.368v6.941a3.208,3.208,0,0,0,.66,2.216,3.66,3.66,0,0,0,2.245.953v.66Zm9.393-21.314h-1.547V32.5q.584.038,1.094.038a5.611,5.611,0,0,0,3.933-1.16,4.824,4.824,0,0,0,1.236-3.669Q250.727,23.244,246.011,23.244Z" transform="translate(-187.747 -21.376)"/><path class="a-logo-cariolagroup" d="M365.867,21.961v.66a4.432,4.432,0,0,0-2.248,1.009,4.078,4.078,0,0,0-.581,2.612V40.729a3.209,3.209,0,0,0,.543,2.131,4.733,4.733,0,0,0,2.286,1.037v.66H355.191V43.9a6.844,6.844,0,0,0,1.8-.66,1.971,1.971,0,0,0,.83-.905,6.121,6.121,0,0,0,.236-2.094V25.79a3.2,3.2,0,0,0-.557-2.141,4.69,4.69,0,0,0-2.311-1.028v-.66Z" transform="translate(-280.328 -21.376)"/><path class="a-logo-cariolagroup" d="M443.654,31.195a11.317,11.317,0,0,1-3.471,8.526,13.39,13.39,0,0,1-17.693,0,11.347,11.347,0,0,1-3.452-8.526,11.392,11.392,0,0,1,3.461-8.544,13.32,13.32,0,0,1,17.683,0A11.378,11.378,0,0,1,443.654,31.195Zm-5.413.151q0-5.262-1.763-8.016a6.165,6.165,0,0,0-10.27,0q-1.754,2.754-1.754,8.054,0,4.923,1.773,7.658a5.711,5.711,0,0,0,5.093,2.735,5.808,5.808,0,0,0,5.093-2.716Q438.24,36.344,438.241,31.346Z" transform="translate(-330.18 -19.293)"/><path class="a-logo-cariolagroup" d="M555.344,21.961v.66a4.953,4.953,0,0,0-2.339,1.037,2.907,2.907,0,0,0-.528,1.962V40.842a2.174,2.174,0,0,0,.745,1.924,5.414,5.414,0,0,0,2.82.509,5.286,5.286,0,0,0,3.367-.952,10.688,10.688,0,0,0,2.5-3.631h.66l-.66,5.866h-17.24V43.9a4.568,4.568,0,0,0,2.314-1.075,4.389,4.389,0,0,0,.515-2.584V25.79a3.209,3.209,0,0,0-.553-2.141,4.618,4.618,0,0,0-2.276-1.028v-.66Z" transform="translate(-428.27 -21.376)"/><path class="a-logo-cariolagroup" d="M644.216,42.475v-.66a5.591,5.591,0,0,0,1.964-.651,1.235,1.235,0,0,0,.573-1.085,5.64,5.64,0,0,0-.435-1.735l-1.306-3.471h-8.065l-1.116,3a5.638,5.638,0,0,0-.428,1.848q0,1.491,2.268,2.1v.66h-7.3v-.66a3.834,3.834,0,0,0,2.3-1.377,12.867,12.867,0,0,0,1.944-3.753l6.5-17.391H644.2l6.872,18.088a10.75,10.75,0,0,0,1.851,3.367,3.512,3.512,0,0,0,2.364,1.066v.66Zm-6.545-9.224H644.4l-3.441-9.167Z" transform="translate(-495.187 -19.293)"/></g><g transform="translate(97.741 45.725)"><path class="b-logo-cariolagroup" d="M410.823,141.309l-1.419,2.255-.24-.166a.939.939,0,0,0,.166-.414q0-.285-.988-.81a8.092,8.092,0,0,0-3.9-1.031,5.964,5.964,0,0,0-3.908,1.3,4.869,4.869,0,0,0-1.82,3.989,4.813,4.813,0,0,0,1.737,3.9,6.146,6.146,0,0,0,4.085,1.339,7.586,7.586,0,0,0,2.5-.411,5.71,5.71,0,0,0,2-1.151v-2.329h-2.985a.949.949,0,0,0-.55.12.8.8,0,0,0-.245.471h-.3v-2.385h.3a.8.8,0,0,0,.245.471.947.947,0,0,0,.55.12h4.963v.3a.859.859,0,0,0-.471.249.925.925,0,0,0-.12.545V149.3a.925.925,0,0,0,.12.545.858.858,0,0,0,.471.249v.259a11.337,11.337,0,0,1-1.969,1.451,9.172,9.172,0,0,1-4.575,1.128,7.47,7.47,0,0,1-5.111-1.71,6.229,6.229,0,0,1-1.525-2.015,6.5,6.5,0,0,1-.638-2.828,6.125,6.125,0,0,1,1.248-3.789,6.589,6.589,0,0,1,3.105-2.228,8.762,8.762,0,0,1,2.958-.49,9.463,9.463,0,0,1,2.57.333,11.853,11.853,0,0,1,2.551,1.1,1.687,1.687,0,0,0,.49.222q.148,0,.453-.388Z" transform="translate(-397.2 -139.876)"/><path class="b-logo-cariolagroup" d="M473.2,147.829v4.586a.925.925,0,0,0,.12.54.84.84,0,0,0,.471.254v.3h-2.634v-.3a.86.86,0,0,0,.471-.249.927.927,0,0,0,.12-.545V141.979a.95.95,0,0,0-.12-.55.807.807,0,0,0-.471-.245v-.3h6.922a12.986,12.986,0,0,1,2.251.153,4.107,4.107,0,0,1,1.437.532,2.964,2.964,0,0,1,1.017,1.064,3.4,3.4,0,0,1,.443,1.731,3.108,3.108,0,0,1-.956,2.355,4.142,4.142,0,0,1-2.63,1.041l3.207,4.983a.922.922,0,0,0,.832.461v.3h-2.92v-.3q.453-.074.453-.258a2.288,2.288,0,0,0-.323-.6l-2.866-4.521Zm0-1.2h5.111a10.43,10.43,0,0,0,1.576-.088,2.8,2.8,0,0,0,.938-.319,2.278,2.278,0,0,0-.028-3.725,2.908,2.908,0,0,0-.966-.324,11.765,11.765,0,0,0-1.65-.083H473.2Z" transform="translate(-454.943 -140.666)"/><path class="b-logo-cariolagroup" d="M542.807,139.876a7.991,7.991,0,0,1,5.379,1.747A6.075,6.075,0,0,1,549.906,144a6.521,6.521,0,0,1,.471,2.486,6.057,6.057,0,0,1-1.026,3.373,6.322,6.322,0,0,1-3.133,2.5,9.434,9.434,0,0,1-3.392.573,7.925,7.925,0,0,1-5.352-1.747,6.35,6.35,0,0,1-1.174-8.244,6.361,6.361,0,0,1,3.143-2.5A9.789,9.789,0,0,1,542.807,139.876Zm0,1.266a6.212,6.212,0,0,0-4.492,1.59,5.21,5.21,0,0,0,0,7.348,7.22,7.22,0,0,0,9.039,0,4.821,4.821,0,0,0,1.506-3.6,4.912,4.912,0,0,0-1.506-3.743,5.243,5.243,0,0,0-1.941-1.192A8.273,8.273,0,0,0,542.807,141.142Z" transform="translate(-505.015 -139.876)"/><path class="b-logo-cariolagroup" d="M616.257,141.979v6.978a7.965,7.965,0,0,0,.13,1.742,1.75,1.75,0,0,0,.536.873q.989.887,3.688.887,2.939,0,3.854-1.044a1.819,1.819,0,0,0,.407-.836,8.922,8.922,0,0,0,.1-1.622v-6.978a.93.93,0,0,0-.12-.541.843.843,0,0,0-.471-.254v-.3h2.5v.3a.806.806,0,0,0-.471.245.95.95,0,0,0-.12.55v7.264a6.2,6.2,0,0,1-.259,2.043,3.255,3.255,0,0,1-1.807,1.849,9.236,9.236,0,0,1-3.674.591q-3.512,0-4.806-1.359a3,3,0,0,1-.735-1.243,6.82,6.82,0,0,1-.208-1.881v-7.264a.952.952,0,0,0-.12-.55.807.807,0,0,0-.472-.245v-.3h2.634v.3a.843.843,0,0,0-.471.254A.928.928,0,0,0,616.257,141.979Z" transform="translate(-566.643 -140.666)"/><path class="b-logo-cariolagroup" d="M685.574,147.829v4.7a.64.64,0,0,0,.13.434.945.945,0,0,0,.462.24v.3h-2.634v-.3a.948.948,0,0,0,.462-.24.641.641,0,0,0,.129-.434V141.849a.626.626,0,0,0-.129-.425.948.948,0,0,0-.462-.24v-.3h6.636a12.271,12.271,0,0,1,2.172.148,3.921,3.921,0,0,1,1.386.536,2.929,2.929,0,0,1,1.026,1.063,3.358,3.358,0,0,1,.434,1.7,3.288,3.288,0,0,1-.795,2.218,3.205,3.205,0,0,1-1.548.994,9.78,9.78,0,0,1-2.676.282Zm0-1.2h4.732a10.7,10.7,0,0,0,1.567-.083,2.6,2.6,0,0,0,.92-.324,2.311,2.311,0,0,0,0-3.725,2.612,2.612,0,0,0-.915-.324,10.7,10.7,0,0,0-1.571-.083h-4.732Z" transform="translate(-620.766 -140.666)"/></g><g transform="translate(88.706 44.441)"><g transform="translate(6.449 12.69)"><path class="c-logo-cariolagroup" d="M386.893,191.908a13.9,13.9,0,0,0-1.486.382,9.138,9.138,0,0,0,6.622,3.637,9.3,9.3,0,0,0,4.762-.851,9.26,9.26,0,0,1-3.417.349A9.024,9.024,0,0,1,386.893,191.908Z" transform="translate(-385.407 -191.908)"/></g><path class="c-logo-cariolagroup" d="M374.74,180.917c-.055.5.692.956,1.979,1.3-.606-.331-.952-.639-.916-.965.113-1.027,3.9-1.9,8.446-1.952.358,0,.716,0,1.072,0a.884.884,0,0,0,.869.619.92.92,0,0,0,.864-.96.886.886,0,0,0-1.743-.231q-.5-.011-1.014-.005a33.364,33.364,0,0,0-6.479.645,8.009,8.009,0,0,1-.573-1.8c-.449.069-.882.143-1.292.221a8.145,8.145,0,0,0,.577,1.922C375.448,180.059,374.788,180.475,374.74,180.917Zm11.1-2.168a.4.4,0,0,1,.3-.165.4.4,0,0,1,.413.4.412.412,0,0,1-.388.429.384.384,0,0,1-.271-.1.411.411,0,0,1-.141-.3A.421.421,0,0,1,385.844,178.749Z" transform="translate(-370.626 -168.02)"/><path class="c-logo-cariolagroup" d="M375.839,137.829a1.076,1.076,0,0,0-1.011.685c-.208,0-.415,0-.627,0a54.391,54.391,0,0,0-6.2.374,8.988,8.988,0,0,1,6.054-4.872,9.406,9.406,0,0,0-7.542,5.087c-2.405.406-3.963.984-4.044,1.618-.064.5.817.959,2.336,1.313-.479-.14-1.069-.658-1.029-.965.135-1.049,4.78-1.93,10.37-1.966.238,0,.474,0,.711,0a1.1,1.1,0,0,0,1.063.617,1.017,1.017,0,0,0,1.059-.977A1.044,1.044,0,0,0,375.839,137.829Zm.056,1.368a.54.54,0,0,1-.313-.087.409.409,0,0,1-.2-.321.381.381,0,0,1,.1-.265.515.515,0,0,1,.377-.173.468.468,0,0,1,.509.408A.455.455,0,0,1,375.895,139.2Z" transform="translate(-361.042 -134.015)"/><g transform="translate(0 6.058)"><path class="d-logo-cariolagroup" d="M420.784,167.7a.429.429,0,0,0-.3.187.438.438,0,0,0,.062.572.429.429,0,0,0,.345.116.44.44,0,0,0-.1-.875Z" transform="translate(-406.281 -166.375)"/><path class="e-logo-cariolagroup" d="M371.5,163.3a.966.966,0,0,0-1.9-.148l-.1,0c-2.267.084-4.752.3-6.967.607a8.828,8.828,0,0,1,.026-1.258c.028-.291.07-.577.125-.858-.53.1-1.013.208-1.443.327a8.712,8.712,0,0,0-.173,2.011c-2.878.482-5.013,1.122-5.082,1.807s1.179,1.254,3.227,1.644c-1.295-.335-2.047-.778-2-1.275.065-.644,2.251-1.248,5.084-1.689l.287-.041v0a64.242,64.242,0,0,1,6.865-.629l.2-.007a.968.968,0,0,0,1,.6A.979.979,0,0,0,371.5,163.3Zm-.913.551a.429.429,0,0,1-.345-.116.438.438,0,0,1-.062-.572.429.429,0,0,1,.3-.187.44.44,0,0,1,.1.875Z" transform="translate(-355.985 -161.65)"/></g></g></g></svg>